<svg width="143" height="40" viewBox="0 0 143 40" fill="none" xmlns="http://www.w3.org/2000/svg">
<path d="M45.36 31.276C45.36 32.188 45.408 32.932 45.504 33.508C45.624 34.06 45.864 34.492 46.224 34.804C46.584 35.092 47.088 35.296 47.736 35.416C48.408 35.536 49.284 35.608 50.364 35.632V37H37.62V35.632C38.46 35.608 39.132 35.536 39.636 35.416C40.164 35.296 40.572 35.092 40.86 34.804C41.148 34.516 41.34 34.108 41.436 33.58C41.532 33.052 41.58 32.368 41.58 31.528V14.752C41.58 13.912 41.532 13.24 41.436 12.736C41.364 12.208 41.196 11.8 40.932 11.512C40.692 11.2 40.332 10.996 39.852 10.9C39.372 10.78 38.748 10.696 37.98 10.648V9.28H58.788L59.184 16.156H57.924C57.78 15.124 57.552 14.284 57.24 13.636C56.928 12.964 56.484 12.436 55.908 12.052C55.356 11.668 54.648 11.404 53.784 11.26C52.92 11.092 51.84 11.008 50.544 11.008H45.972C45.564 11.008 45.36 11.212 45.36 11.62V22.492C46.512 22.492 47.496 22.432 48.312 22.312C49.152 22.168 49.836 21.928 50.364 21.592C50.916 21.256 51.336 20.8 51.624 20.224C51.912 19.648 52.092 18.904 52.164 17.992H53.424V28.54H52.164C52.044 27.628 51.852 26.872 51.588 26.272C51.324 25.672 50.928 25.204 50.4 24.868C49.896 24.532 49.236 24.292 48.42 24.148C47.604 24.004 46.584 23.932 45.36 23.932V31.276ZM71.3804 26.344C70.0124 26.872 68.8484 27.388 67.8884 27.892C66.9524 28.396 66.1964 28.9 65.6204 29.404C65.0444 29.908 64.6244 30.412 64.3604 30.916C64.1204 31.42 64.0004 31.936 64.0004 32.464C64.0004 33.256 64.2644 33.904 64.7924 34.408C65.3204 34.912 66.0164 35.164 66.8804 35.164C67.5044 35.164 68.0804 35.008 68.6084 34.696C69.1604 34.384 69.6404 33.964 70.0484 33.436C70.4564 32.884 70.7804 32.248 71.0204 31.528C71.2604 30.784 71.3804 30.004 71.3804 29.188V26.344ZM71.3804 24.796V23.32C71.3804 20.392 70.1324 18.928 67.6364 18.928C67.2284 18.928 66.8804 18.964 66.5924 19.036C66.3044 19.108 66.0644 19.228 65.8724 19.396C65.6804 19.564 65.5004 19.804 65.3324 20.116C65.1884 20.428 65.0444 20.812 64.9004 21.268C64.6364 21.964 64.3724 22.432 64.1084 22.672C63.8684 22.888 63.5084 22.996 63.0284 22.996C61.8284 22.996 61.2284 22.396 61.2284 21.196C61.2284 20.044 61.8404 19.156 63.0644 18.532C64.2884 17.884 66.0284 17.56 68.2844 17.56C70.6844 17.56 72.3884 17.992 73.3964 18.856C74.4044 19.696 74.9084 21.136 74.9084 23.176V31.24C74.9084 33.976 75.4484 35.344 76.5284 35.344C76.8644 35.344 77.1884 35.308 77.5004 35.236C77.8124 35.14 78.0764 34.912 78.2924 34.552L78.7964 35.416C78.5084 35.968 77.9804 36.436 77.2124 36.82C76.4444 37.18 75.6404 37.36 74.8004 37.36C73.7444 37.36 72.9524 37.024 72.4244 36.352C71.9204 35.68 71.6684 34.732 71.6684 33.508H71.4884C70.8644 34.684 70.0004 35.62 68.8964 36.316C67.7924 36.988 66.5684 37.324 65.2244 37.324C63.7124 37.324 62.5244 36.94 61.6604 36.172C60.7964 35.404 60.3644 34.372 60.3644 33.076C60.3644 32.5 60.4604 31.948 60.6524 31.42C60.8684 30.892 61.2044 30.388 61.6604 29.908C62.1164 29.428 62.7164 28.96 63.4604 28.504C64.2044 28.024 65.1164 27.544 66.1964 27.064L71.3804 24.796ZM86.742 31.276C86.742 32.26 86.766 33.04 86.814 33.616C86.862 34.192 86.982 34.636 87.174 34.948C87.39 35.236 87.69 35.428 88.074 35.524C88.458 35.62 88.998 35.692 89.694 35.74V37H80.118V35.74C80.814 35.716 81.366 35.656 81.774 35.56C82.182 35.44 82.494 35.236 82.71 34.948C82.926 34.66 83.058 34.252 83.106 33.724C83.178 33.172 83.214 32.44 83.214 31.528V27.316C83.214 25.684 83.19 24.412 83.142 23.5C83.118 22.588 82.998 21.916 82.782 21.484C82.59 21.052 82.278 20.8 81.846 20.728C81.414 20.632 80.814 20.584 80.046 20.584V19.324L86.346 17.956L86.85 22.42H86.994C87.306 21.7 87.69 21.04 88.146 20.44C88.626 19.84 89.142 19.336 89.694 18.928C90.246 18.496 90.822 18.16 91.422 17.92C92.022 17.68 92.634 17.56 93.258 17.56C94.026 17.56 94.626 17.752 95.058 18.136C95.514 18.496 95.742 18.988 95.742 19.612C95.742 20.188 95.562 20.644 95.202 20.98C94.842 21.292 94.326 21.448 93.654 21.448C93.27 21.448 92.946 21.4 92.682 21.304C92.418 21.208 92.178 21.112 91.962 21.016C91.77 20.896 91.578 20.788 91.386 20.692C91.218 20.596 91.026 20.548 90.81 20.548C90.162 20.548 89.514 20.968 88.866 21.808C88.218 22.624 87.714 23.668 87.354 24.94C87.162 25.636 87.006 26.428 86.886 27.316C86.79 28.18 86.742 29.092 86.742 30.052V31.276ZM104.114 31.276C104.114 32.212 104.15 32.968 104.222 33.544C104.318 34.096 104.486 34.54 104.726 34.876C104.966 35.188 105.302 35.404 105.734 35.524C106.166 35.644 106.742 35.716 107.462 35.74V37H97.1303V35.74C97.8503 35.716 98.4383 35.644 98.8943 35.524C99.3503 35.38 99.6983 35.164 99.9383 34.876C100.202 34.564 100.37 34.144 100.442 33.616C100.538 33.064 100.586 32.368 100.586 31.528V26.92C100.586 25.528 100.562 24.388 100.514 23.5C100.49 22.588 100.43 21.964 100.334 21.628C100.214 21.076 99.9383 20.704 99.5063 20.512C99.0743 20.296 98.2583 20.188 97.0583 20.188V18.928L104.114 17.56V31.276ZM99.9743 10.252C99.9743 9.628 100.19 9.1 100.622 8.668C101.054 8.236 101.582 8.02 102.206 8.02C102.83 8.02 103.358 8.236 103.79 8.668C104.222 9.1 104.438 9.628 104.438 10.252C104.438 10.876 104.222 11.404 103.79 11.836C103.358 12.268 102.83 12.484 102.206 12.484C101.582 12.484 101.054 12.268 100.622 11.836C100.19 11.404 99.9743 10.876 99.9743 10.252ZM109.616 20.188V18.856C110.888 18.112 111.884 17.368 112.604 16.624C113.324 15.88 113.876 14.992 114.26 13.96H115.304V18.496H120.128V20.188H115.304V31.132C115.304 31.972 115.34 32.68 115.412 33.256C115.508 33.832 115.652 34.3 115.844 34.66C116.036 34.996 116.288 35.236 116.6 35.38C116.912 35.524 117.308 35.596 117.788 35.596C118.388 35.596 118.892 35.476 119.3 35.236C119.732 34.972 120.152 34.54 120.56 33.94L121.46 34.624C121.124 35.512 120.536 36.196 119.696 36.676C118.88 37.132 117.86 37.36 116.636 37.36C115.052 37.36 113.84 36.988 113 36.244C112.184 35.476 111.776 34.384 111.776 32.968V20.188H109.616ZM140.573 33.652C138.533 36.124 136.001 37.36 132.977 37.36C131.561 37.36 130.277 37.132 129.125 36.676C127.973 36.196 126.977 35.536 126.137 34.696C125.321 33.832 124.685 32.812 124.229 31.636C123.773 30.436 123.545 29.116 123.545 27.676C123.545 26.212 123.785 24.856 124.265 23.608C124.745 22.36 125.417 21.292 126.281 20.404C127.169 19.516 128.213 18.82 129.413 18.316C130.637 17.812 131.969 17.56 133.409 17.56C135.737 17.56 137.537 18.196 138.809 19.468C140.081 20.716 140.717 22.516 140.717 24.868C140.717 25.204 140.645 25.408 140.501 25.48C140.381 25.552 140.081 25.588 139.601 25.588H127.757C127.709 25.78 127.673 26.02 127.649 26.308C127.625 26.572 127.613 26.872 127.613 27.208C127.613 28.456 127.757 29.596 128.045 30.628C128.357 31.636 128.789 32.5 129.341 33.22C129.917 33.94 130.589 34.504 131.357 34.912C132.149 35.296 133.025 35.488 133.985 35.488C134.993 35.488 135.929 35.272 136.793 34.84C137.657 34.384 138.545 33.652 139.457 32.644L140.573 33.652ZM134.633 23.932C135.113 23.932 135.497 23.92 135.785 23.896C136.073 23.872 136.289 23.824 136.433 23.752C136.577 23.68 136.673 23.584 136.721 23.464C136.769 23.32 136.793 23.14 136.793 22.924C136.793 21.82 136.433 20.944 135.713 20.296C135.017 19.624 134.057 19.288 132.833 19.288C130.241 19.288 128.633 20.836 128.009 23.932H134.633Z" fill="white"/>
<path d="M4 19.742H3.66667C2.74767 19.742 2 19.0091 2 18.1082C2 17.2074 2.74767 16.4745 3.66667 16.4745H4V19.742ZM8 21.3757C8 21.9163 7.5515 22.3559 7 22.3559C6.4485 22.3559 6 21.9163 6 21.3757V14.8408C6 14.3002 6.4485 13.8606 7 13.8606C7.5515 13.8606 8 14.3002 8 14.8408V21.3757ZM30 16.4745H30.3333C31.2523 16.4745 32 17.2074 32 18.1082C32 19.0091 31.2523 19.742 30.3333 19.742H30V16.4745ZM26 14.8408C26 14.3002 26.4485 13.8606 27 13.8606C27.5515 13.8606 28 14.3002 28 14.8408V21.3757C28 21.9163 27.5515 22.3559 27 22.3559C26.4485 22.3559 26 21.9163 26 21.3757V14.8408ZM18.6667 36.4058C18.6667 37.3067 17.919 38.0395 17 38.0395C16.081 38.0395 15.3333 37.3067 15.3333 36.4058V36.0791H18.6667V36.4058ZM21.3333 33.1384C21.3333 33.679 20.8848 34.1186 20.3333 34.1186H13.6667C13.1152 34.1186 12.6667 33.679 12.6667 33.1384C12.6667 32.5978 13.1152 32.1582 13.6667 32.1582H20.3333C20.8848 32.1582 21.3333 32.5978 21.3333 33.1384ZM24 16.4745V19.742H18.6667V30.1977H15.3333V19.742H10V16.4745H15.3333V11.2466H18.6667V16.4745H24ZM20.3333 7.32573C20.8848 7.32573 21.3333 7.76537 21.3333 8.30596C21.3333 8.84656 20.8848 9.28619 20.3333 9.28619H13.6667C13.1152 9.28619 12.6667 8.84656 12.6667 8.30596C12.6667 7.76537 13.1152 7.32573 13.6667 7.32573H20.3333ZM18.6667 5.03853V5.36528H15.3333V5.03853C15.3333 4.1377 16.081 3.40482 17 3.40482C17.919 3.40482 18.6667 4.1377 18.6667 5.03853Z" fill="white"/>
</svg>
